<?xml version="1.0" encoding="utf-8"?>
<!-- Generator: Adobe Illustrator 27.5.0, SVG Export Plug-In . SVG Version: 6.00 Build 0)  -->
<svg version="1.1" xmlns="http://www.w3.org/2000/svg" xmlns:xlink="http://www.w3.org/1999/xlink" x="0px" y="0px"
	 viewBox="0 0 2200 2200" style="enable-background:new 0 0 2200 2200;" xml:space="preserve">
<g id="background">
	<rect style="fill:#FFFFFF;" width="2200" height="2200"/>
</g>
<g id="Objects">
	<path d="M1725.957,1373.64c-171.089-92.029-376.992-157.663-569.267-97.433c-109.155,34.661-211.349,102.368-272.785,200.519
		c-18.244-3.143-36.597-6.673-54.654-10.837c30.857-60.261,63.998-120.996,97.159-177.453
		c23.943-41.002,48.823-81.627,74.558-121.797c3.78,1.099,7.601,2.156,10.93,3.029c107.522,26.202,263.564,20.247,365.786-23.964
		c3-1.445,6.728-3.025,9.893-4.605c8.478-4.138,19.61-9.954,27.985-14.412c142.425-75.969,237.974-196.639,291.402-347.774
		c59.825-166.343,59.226-352.523,5.377-520.303c-1.586-5.977-7.776-9.51-13.729-7.834
		c-374.167,103.336-704.393,325.198-730.39,744.921c-2.318,51.649,1.963,103.849,14.265,154.44
		c-36.444,54.422-71.238,109.847-104.236,166.071c-24.654,42.049-48.479,84.698-71.359,127.896
		c-0.594-1.061-1.187-2.121-1.782-3.181c-11.411-19.785-24.876-46.465-35.505-66.855c-1.668-3.303-3.355-6.676-5.055-10.103
		c89.687-118.245,98.306-292.672,35.09-424.745c-3-6.33-7.302-15.851-10.638-21.913c-3.239-6.17-8.019-15.524-11.58-21.409
		c-9.708-17.294-21.229-35.025-32.591-51.27c-3.956-5.778-10.124-13.835-14.301-19.618c-39.059-51.631-84.981-97.627-133.947-139.74
		c-4.07-3.895-10.528-3.753-14.423,0.317c-18.864,19.253-36.646,41.178-52.037,63.374c-45.945,66.724-75.458,146.074-82.66,226.917
		c-7.754,89.013,8.799,173.602,59.152,248.506c4.645,7.297,9.873,14.142,14.88,21.173c2.682,3.368,7.954,10.115,10.659,13.478
		c9.294,11.664,20.434,22.263,31.647,31.469c47.114,38.253,116.76,72.426,177.898,81.783c11.483,27.735,23.254,55.283,35.201,82.569
		c3.693,8.503,7.409,17,11.07,25.529c-74.967,145.979-138.847,298.031-186.829,454.484c-1.715,5.625,1.229,11.711,6.817,13.773
		c5.793,2.138,12.223-0.825,14.361-6.618c49.942-135.431,105.661-268.965,168.46-398.806c7.282-15.092,14.787-30.353,22.461-45.696
		c22.627,4.427,45.849,7.841,68.703,10.662c1.796,3.152,3.654,6.256,5.603,9.28c44.948,69.394,127.087,143.594,204.855,173.576
		c5.532,2.102,14.614,4.815,20.244,6.541c6.042,1.865,13.941,4.269,20.106,5.662c6.767,1.692,13.481,3.589,20.367,4.87
		c106.901,23.874,209.298,5.511,306.698-42.257c117.913-58.122,214.251-158.594,270.563-277.045l0.589-1.212l0.06-0.127
		C1733.447,1382.25,1731.176,1376.059,1725.957,1373.64z M1162.453,571.571c139.873-152.245,333.833-242.041,530.725-296.157
		c18.203,84.609,26.264,171.642,21.479,257.998c-4.398,78.808-19.22,157.388-46.131,231.628
		c-54.1,153.036-149.013,267.976-294.151,342.343c-50.537,26.199-107.979,37.519-164.319,44.164
		c-64.811,6.612-131.732,7.74-195.781-5.51c29.513-45.371,60.11-90.136,91.679-134.177c50.063,6.383,101.24,5.432,150.823-3.966
		c25.588-4.979,50.997-12.665,74.522-23.973c4.166-1.902,9.797-4.943,13.917-7.151c2.583-1.513,0.453-5.028-1.919-3.958
		c-2.929,1.238-7.589,3.435-10.632,4.655c-24.728,10.062-51.152,16.286-77.631,19.429c-44.852,5.237-90.499,3.217-134.938-4.623
		c42.89-59.003,87.508-116.657,133.579-172.673c2.749,0.732,5.752,1.582,8.49,2.21c55.59,13.025,119.01,18.09,173.158-2.941
		c3.279-1.407,1.411-6.031-1.729-5.135c-7.252,2.075-14.59,3.756-22.015,4.939c-47.238,7.037-97.685-1.796-142.877-17.185
		c47.588-56.926,97.578-113.436,148.317-167.18c0.906-0.964,0.905-2.485-0.028-3.442c-0.958-0.985-2.534-1.006-3.518-0.047
		c-51.221,49.698-101.545,102.543-149.451,156.029c-0.894-22.412-0.105-44.965,2.199-67.251c2.971-29.431,9.354-58.99,19.737-86.755
		c0.134-0.327-0.001-0.706-0.326-0.866c-0.334-0.163-0.736-0.024-0.899,0.309c-1.816,3.879-5.648,11.322-7.407,15.244
		c-2.092,5.114-4.537,10.548-6.53,15.689c-14.81,39.072-23.1,80.616-26.537,122.241c-0.574,7.555-1.132,15.707-1.188,23.277
		c0.012,0.552,0.069,1.072,0.144,1.578c-45.781,52.267-90.048,106.179-132.618,161.5c-1.769-25.576-2.45-51.265-2.064-76.88
		c0.732-34.941,3.218-70.077,11.939-104.061c0.139-0.509-0.135-1.051-0.64-1.235c-0.534-0.195-1.125,0.079-1.32,0.613
		c-6.078,16.627-10.521,33.863-14.036,51.253c-8.652,43.577-12.27,88.019-13.583,132.393c-0.197,8.12-0.339,16.047-0.29,24.183
		c-31.284,41.499-61.615,83.751-90.922,126.657C960.23,930.713,1032.425,717.399,1162.453,571.571z M586.236,1264.299
		c-9.112-8.218-17.378-16.583-24.607-26.012c-2.861-3.852-7.683-10.534-10.555-14.356c-53.035-74.979-70.755-153.519-62.897-244.539
		l1.961-18.604l2.751-18.523l3.439-18.43l4.17-18.303l4.846-18.163c0,0,5.507-18.003,5.507-18.003c0,0,6.17-17.818,6.171-17.818
		c17.196-47.379,41.659-92.905,70.07-134.6c1.535-2.198,3.084-4.39,4.63-6.586c89.586,75.744,168.6,168.662,207.789,280.469
		c38.829,113.13,25.591,252.867-45.886,350.742c-8.256-17.181-16.456-34.803-23.829-51.087
		c-19.641-43.609-38.388-87.756-55.702-132.457c0.298-0.324,0.59-0.659,0.868-1.015c3.29-3.649,6.312-7.447,9.253-11.353
		c20.805-28.317,35.284-61.635,39.907-96.512c0.324-2.662,0.635-5.317,0.863-7.979c0.073-0.882-0.385-1.765-1.224-2.185
		c-1.102-0.551-2.441-0.105-2.993,0.997c-3.443,7.086-6.603,14.259-10.081,21.303c-8.976,18.332-19.054,36.005-30.573,52.78
		c-4.776,6.889-9.746,13.701-15.071,20.199c-19.628-52.498-37.157-105.76-51.7-159.819c-0.204-0.883-1.085-1.443-1.976-1.243
		c-0.892,0.2-1.452,1.086-1.252,1.978c9.907,44.087,22.239,87.486,35.263,130.72c2.874,9.469,5.981,19.508,9.171,29.571
		c-3.22-1.186-8.944-3.272-12.055-4.368c-7.269-2.832-15.083-5.942-22.292-9.024c-20.387-9.131-40.704-19.203-58.439-33.031
		c-0.315-0.286-0.764-0.382-1.175-0.188c-0.52,0.247-0.742,0.869-0.495,1.39c2.328,4.901,5.383,9.249,8.704,13.406
		c16.75,20.703,39.682,35.561,63.656,46.634c1.986,0.992,5.206,2.259,7.273,3.13c7.039,3.009,15.042,5.753,22.257,8.158
		c0.382,0.128,0.761,0.227,1.139,0.313c0.962,2.889,1.92,5.741,2.87,8.533c19.35,58.686,41.297,117.187,64.686,174.95
		C679.078,1329.552,624.951,1298.139,586.236,1264.299z M1575.76,1538.834l-17.663,15.079l-18.186,14.397l-18.68,13.701
		l-19.158,12.978l-19.641,12.19l-20.07,11.424l-20.521,10.551c-97.083,47.609-194.31,63.632-300.245,38.278
		c-5.691-1.2-13.16-3.163-18.885-4.789c-5.142-1.417-13.419-3.589-18.348-5.306c-65.939-23.268-144.624-85.664-191.327-145.817
		c56.758,5.432,113.842,7.328,170.827,5.721c13.118,21.229,30.913,39.586,51.603,53.485c13.611,8.924,28.653,15.974,44.647,19.22
		c2.425,0.516,3.693-2.771,1.687-4.068c-9.759-6.67-18.838-13.365-27.527-20.852c-16.563-14.436-31.502-30.822-44.187-48.767
		c43.523-2.049,86.949-6.141,130.085-12.256c0.402,0.365,0.96,0.872,0.96,0.873c19.653,17.241,42.358,31.386,67.13,39.947
		c8.409,2.881,17.143,4.965,25.975,5.958c2.359,0.32,3.441-2.94,1.433-4.13c-3.651-2.266-7.585-4.276-11.196-6.565
		c-19.699-11.869-38.268-25.524-55.724-40.456c62.862-10.437,125.232-25.523,185.705-45.128c1.255-0.408,1.986-1.738,1.633-3.024
		c-0.364-1.33-1.743-2.11-3.071-1.739c-62.334,17.088-125.966,29.331-190.039,36.786c-0.546,0.062-1.093,0.118-1.64,0.179
		c9.186-31.218,25.418-60.168,38.536-90.057c0.464-1.08-0.742-1.875-1.599-1.294c-3.93,2.955-7.519,6.205-11.003,9.57
		c-17.415,17.098-31.65,37.189-41.633,59.592c-3.358,7.852-6.162,16.074-8.162,24.656c-43.035,4.072-86.278,6.115-129.523,6.116
		c12.823-23.041,26.036-45.917,36.68-70.158c0.146-0.346,0.106-0.764-0.144-1.079c-0.364-0.459-1.031-0.535-1.49-0.171
		c-3.289,2.613-6.375,5.384-9.395,8.217c-15.002,14.169-28.313,29.955-40.218,46.802c-3.659,5.247-7.161,10.628-10.497,16.158
		c-58.61-1.07-117.145-5.9-175.086-14.529c79.034-121.982,223.852-196.058,367.142-207.02
		c150.949-8.841,298.573,42.254,429.7,113.907c-2.256,3.473-4.501,6.947-6.76,10.408
		C1663.388,1449.262,1622.192,1497.936,1575.76,1538.834z"/>
</g>
</svg>
